<svg width="100" height="100" viewBox="0 0 100 100" fill="none" xmlns="http://www.w3.org/2000/svg">
<rect width="100" height="100" rx="22" fill="#0066DC"/>
<path fill-rule="evenodd" clip-rule="evenodd" d="M77 75.7911H66.3734V71.6129C63.109 74.8161 59.7755 76 55.3303 76C50.816 76 46.9266 74.5374 43.6622 71.6129C39.3562 67.7831 37.1333 62.7688 37.1333 56.9197C37.1333 51.5575 39.2169 46.7527 43.1063 42.9921C46.5791 39.58 50.816 37.8388 55.5386 37.8388C60.0529 37.8388 63.5256 39.3706 66.0259 42.5738V26.2796L76.9994 24L77 75.7911ZM57.569 48.2667C52.3987 48.2667 48.3999 52.4563 48.3999 57.4011C48.3999 62.5518 52.3982 66.4667 57.9826 66.4667C62.6702 66.4667 66.5999 62.6207 66.5999 57.5382C66.5999 52.2498 62.6702 48.2667 57.569 48.2667Z" fill="white"/>
</svg>
