<?xml version="1.0" encoding="UTF-8"?>
<svg width="100px" height="100px" viewBox="0 0 100 100" version="1.1" xmlns="http://www.w3.org/2000/svg" xmlns:xlink="http://www.w3.org/1999/xlink" style="background: #FFFFFF;">
    <!-- Generator: Sketch 46.1 (44463) - http://www.bohemiancoding.com/sketch -->
    <title>dailymotion</title>
    <desc>Created with Sketch.</desc>
    <defs></defs>
    <g id="Plugin-Icons" stroke="none" stroke-width="1" fill="none" fill-rule="evenodd">
        <g id="dailymotion" fill="#0066DC">
            <path d="M50,100 C77.6142375,100 100,77.6142375 100,50 C100,22.3857625 77.6142375,0 50,0 C22.3857625,0 0,22.3857625 0,50 C0,77.6142375 22.3857625,100 50,100 Z M57.5797388,48 C51.6140036,48 47,52.8342261 47,58.5397186 C47,64.482887 51.6133657,69 58.0568955,69 C63.4657351,69 68,64.5623241 68,58.6979573 C68,52.5959147 63.4657351,48 57.5797388,48 Z M80,79.7590103 L67.7386032,79.7590103 L67.7386032,74.9379269 C63.9719463,78.6339619 60.125599,80 54.9964933,80 C49.7876972,80 45.2999707,78.3124275 41.5333138,74.9379269 C36.5648742,70.5189226 34,64.733236 34,57.9842347 C34,51.7971133 36.4042081,46.2530607 40.8919346,41.9139568 C44.898948,37.976932 49.7876972,35.9678251 55.2368498,35.9678251 C60.4456459,35.9678251 64.4526594,37.7352979 67.3375805,41.431333 L67.3375805,22.6302676 L79.9993573,20 L79.9993573,79.7590103 L80,79.7590103 Z" id="Combined-Shape"></path>
        </g>
    </g>
</svg>